<svg width="150" height="150" viewBox="0 0 150 150" fill="none" xmlns="http://www.w3.org/2000/svg">
<circle cx="75" cy="75" r="75" fill="#334756"/>
<path d="M85 82H93V90H85V82Z" fill="white"/>
<path d="M57 42H97C97.2931 42.0001 97.5826 42.0647 97.8481 42.1891C98.1135 42.3135 98.3484 42.4948 98.536 42.72L108.536 54.72C109.004 55.28 109 55.564 109 55.928V62C109 65.552 107.456 68.748 105 70.944V104C105 104.53 104.789 105.039 104.414 105.414C104.039 105.789 103.53 106 103 106H77V80C77 79.4695 76.7893 78.9608 76.4142 78.5858C76.0391 78.2107 75.5304 78 75 78H59C58.4696 78 57.9609 78.2107 57.5858 78.5858C57.2107 78.9608 57 79.4695 57 80V106H51C50.4696 106 49.9609 105.789 49.5858 105.414C49.2107 105.039 49 104.53 49 104V70.944C46.544 68.744 45 65.552 45 62V56C45.0002 55.5322 45.1644 55.0793 45.464 54.72L55.464 42.72C55.6516 42.4948 55.8864 42.3135 56.1519 42.1891C56.4173 42.0647 56.7068 42.0001 57 42ZM49 58V62C49 64.1217 49.8429 66.1565 51.3431 67.6568C52.8434 69.1571 54.8783 70 57 70C59.1217 70 61.1566 69.1571 62.6568 67.6568C64.1571 66.1565 65 64.1217 65 62V58H49ZM69 58V62C69 64.1217 69.8428 66.1565 71.3431 67.6568C72.8434 69.1571 74.8782 70 77 70C79.1217 70 81.1565 69.1571 82.6568 67.6568C84.1571 66.1565 85 64.1217 85 62V58H69ZM89 58V62C89 64.1217 89.8428 66.1565 91.3431 67.6568C92.8434 69.1571 94.8782 70 97 70C99.1217 70 101.157 69.1571 102.657 67.6568C104.157 66.1565 105 64.1217 105 62V58H89ZM57.936 46L51.272 54H65.56L68.224 46H57.936ZM84.224 54L81.56 46H72.44L69.776 54H84.224ZM88.44 54H102.732L96.064 46H85.776L88.44 54ZM81 80V92C81 92.5304 81.2107 93.0391 81.5858 93.4142C81.9608 93.7892 82.4695 94 83 94H95C95.5304 94 96.0391 93.7892 96.4142 93.4142C96.7893 93.0391 97 92.5304 97 92V80C97 79.4695 96.7893 78.9608 96.4142 78.5858C96.0391 78.2107 95.5304 78 95 78H83C82.4695 78 81.9608 78.2107 81.5858 78.5858C81.2107 78.9608 81 79.4695 81 80Z" fill="white"/>
<path d="M73 106V82H61V106H73Z" fill="white"/>
</svg>
